<svg viewBox="0 0 256 256" xmlns="http://www.w3.org/2000/svg"><g fill="none" stroke="#424242" stroke-linecap="round" stroke-linejoin="round" stroke-width="6"><circle cx="128" cy="128" r="118.76"/><path d="m128 27.66v17.41"/><path d="m102.03 31.08 4.51 16.82"/><path d="m77.83 41.1 8.7 15.08"/><path d="m57.05 57.05 12.31 12.31"/><path d="m41.1 77.83 15.08 8.7"/><path d="m214.9 178.17-15.08-8.7"/><path d="m31.08 102.03 16.82 4.51"/><path d="m224.92 153.97-16.82-4.51"/><path d="m27.66 128h17.41"/><path d="m228.34 128h-17.41"/><path d="m31.08 153.97 16.82-4.51"/><path d="m224.92 102.03-16.82 4.51"/><path d="m41.1 178.17 15.08-8.7"/><path d="m214.9 77.83-15.08 8.7"/><path d="m198.95 57.05-12.31 12.31"/><path d="m178.17 41.1-8.7 15.08"/><path d="m153.97 31.08-4.51 16.82"/></g><circle cx="128" cy="127.64" fill="#424242" r="8.7"/><path d="m128 127.64-49.03 27.49" fill="none" stroke="#424242" stroke-linecap="round" stroke-linejoin="round" stroke-width="6"/></svg>